<svg width="20" height="21" viewBox="0 0 20 21" fill="none" xmlns="http://www.w3.org/2000/svg">
<path d="M10 0.5C4.486 0.5 0 4.986 0 10.5C0 16.014 4.486 20.5 10 20.5C15.514 20.5 20 16.014 20 10.5C20 4.986 15.514 0.5 10 0.5ZM10 18.5C5.589 18.5 2 14.911 2 10.5C2 6.089 5.589 2.5 10 2.5C14.411 2.5 18 6.089 18 10.5C18 14.911 14.411 18.5 10 18.5ZM11 14.5C11 15.052 10.552 15.5 10 15.5C9.448 15.5 9 15.052 9 14.5C9 13.948 9.448 13.5 10 13.5C10.552 13.5 11 13.948 11 14.5ZM11 6.5V10.5C11 11.053 10.552 11.5 10 11.5C9.448 11.5 9 11.053 9 10.5V6.5C9 5.947 9.448 5.5 10 5.5C10.552 5.5 11 5.947 11 6.5Z" fill="white" fill-opacity="0.8"/>
</svg>
