<svg width="299" height="17" viewBox="0 0 299 17" fill="none" xmlns="http://www.w3.org/2000/svg">
<path d="M3.30433 6.81818C3.30433 6.17022 3.46331 5.5786 3.78125 5.04332C4.0992 4.50805 4.52379 4.08345 5.05504 3.76953C5.59032 3.45159 6.18194 3.29261 6.8299 3.29261C7.39335 3.29261 7.91454 3.41536 8.39347 3.66087C8.8724 3.90234 9.26882 4.23437 9.58274 4.65696C9.89666 5.07955 10.0878 5.55445 10.1562 6.08168H8.58665C8.51421 5.70739 8.30895 5.40151 7.97088 5.16406C7.63684 4.92258 7.25651 4.80185 6.8299 4.80185C6.45964 4.80185 6.12157 4.8924 5.8157 5.07351C5.50982 5.25462 5.26634 5.49811 5.08523 5.80398C4.90412 6.10582 4.81357 6.44389 4.81357 6.81818C4.81357 7.18845 4.90412 7.52652 5.08523 7.83239C5.26634 8.13826 5.50982 8.38175 5.8157 8.56285C6.12157 8.74396 6.45964 8.83452 6.8299 8.83452C7.25651 8.83452 7.62074 8.71579 7.92259 8.47834C8.22443 8.23686 8.41359 7.92898 8.49006 7.55469H10.0597C9.99124 8.08191 9.80812 8.55682 9.5103 8.9794C9.21248 9.40199 8.83215 9.73603 8.36932 9.98153C7.90649 10.223 7.39335 10.3438 6.8299 10.3438C6.18194 10.3438 5.59032 10.1868 5.05504 9.87287C4.52379 9.55492 4.0992 9.12831 3.78125 8.59304C3.46331 8.05777 3.30433 7.46615 3.30433 6.81818ZM6.77557 13.1932C5.8982 13.1932 5.07315 13.0282 4.30043 12.6982C3.53172 12.3681 2.85357 11.9113 2.26598 11.3278C1.68241 10.7402 1.2236 10.062 0.88956 9.29332C0.559541 8.52462 0.396544 7.69957 0.400568 6.81818C0.404593 5.93679 0.571615 5.11174 0.901634 4.34304C1.23568 3.57434 1.69448 2.8982 2.27805 2.31463C2.86162 1.72704 3.53776 1.26823 4.30646 0.93821C5.07517 0.608191 5.8982 0.443182 6.77557 0.443182C7.65696 0.443182 8.48201 0.608191 9.25071 0.93821C10.0234 1.26823 10.6996 1.72704 11.2791 2.31463C11.8627 2.8982 12.3195 3.57434 12.6495 4.34304C12.9795 5.11174 13.1465 5.93679 13.1506 6.81818C13.1546 7.69957 12.9916 8.52462 12.6616 9.29332C12.3316 10.062 11.8748 10.7402 11.2912 11.3278C10.7076 11.9113 10.0295 12.3681 9.25675 12.6982C8.48402 13.0282 7.65696 13.1932 6.77557 13.1932ZM6.77557 11.5874C7.43561 11.5874 8.0554 11.4646 8.63494 11.2191C9.21449 10.9736 9.72159 10.6335 10.1562 10.1989C10.5949 9.76018 10.937 9.25308 11.1825 8.67756C11.428 8.09801 11.5488 7.48023 11.5447 6.82422C11.5447 6.16418 11.42 5.54439 11.1705 4.96484C10.925 4.3853 10.5829 3.8782 10.1442 3.44354C9.70952 3.00485 9.20443 2.66276 8.62891 2.41726C8.05339 2.17176 7.43561 2.049 6.77557 2.049C6.11956 2.049 5.50379 2.17176 4.92827 2.41726C4.35275 2.66276 3.84564 3.00485 3.40696 3.44354C2.9723 3.88222 2.63021 4.39134 2.38068 4.97088C2.13116 5.5464 2.00639 6.16418 2.00639 6.82422C2.00237 7.47621 2.12311 8.09197 2.36861 8.67152C2.61813 9.24704 2.96023 9.75414 3.39489 10.1928C3.83357 10.6275 4.34067 10.9696 4.91619 11.2191C5.49574 11.4646 6.11553 11.5874 6.77557 11.5874ZM20.244 13V11.6477L24.4276 7.31321C24.8743 6.84233 25.2425 6.42981 25.5323 6.07564C25.8261 5.71745 26.0455 5.37737 26.1903 5.0554C26.3352 4.73343 26.4077 4.39133 26.4077 4.02912C26.4077 3.61861 26.3111 3.26444 26.1179 2.96662C25.9247 2.66477 25.6611 2.43336 25.3271 2.27237C24.993 2.10736 24.6167 2.02486 24.1982 2.02486C23.7554 2.02486 23.3691 2.11541 23.0391 2.29652C22.709 2.47763 22.4555 2.73319 22.2784 3.06321C22.1013 3.39323 22.0128 3.77959 22.0128 4.2223H20.2319C20.2319 3.4697 20.4049 2.81167 20.7511 2.24822C21.0972 1.68478 21.5721 1.24811 22.1758 0.93821C22.7795 0.624289 23.4657 0.467329 24.2344 0.467329C25.0111 0.467329 25.6953 0.622277 26.2869 0.932173C26.8826 1.23804 27.3474 1.6566 27.6815 2.18785C28.0155 2.71508 28.1825 3.31072 28.1825 3.97479C28.1825 4.43359 28.096 4.88234 27.9229 5.32102C27.7539 5.75971 27.4581 6.2487 27.0355 6.788C26.6129 7.32327 26.0253 7.97325 25.2727 8.73793L22.8157 11.3097V11.4002H28.3817V13H20.244ZM34.9741 13.2053C34.0202 13.2012 33.2053 12.9497 32.5291 12.4506C31.853 11.9516 31.3358 11.2251 30.9776 10.2713C30.6194 9.31747 30.4403 8.16844 30.4403 6.82422C30.4403 5.48402 30.6194 4.33901 30.9776 3.3892C31.3398 2.43939 31.859 1.71496 32.5352 1.21591C33.2153 0.716856 34.0283 0.467329 34.9741 0.467329C35.9199 0.467329 36.7308 0.718868 37.407 1.22195C38.0831 1.721 38.6003 2.44543 38.9585 3.39524C39.3207 4.34103 39.5018 5.48402 39.5018 6.82422C39.5018 8.17247 39.3227 9.32351 38.9645 10.2773C38.6063 11.2272 38.0891 11.9536 37.413 12.4567C36.7369 12.9557 35.9239 13.2053 34.9741 13.2053ZM34.9741 11.5934C35.8112 11.5934 36.4652 11.1849 36.9361 10.3679C37.411 9.5509 37.6484 8.36967 37.6484 6.82422C37.6484 5.79794 37.5398 4.93063 37.3224 4.2223C37.1091 3.50994 36.8013 2.97064 36.3988 2.6044C36.0004 2.23414 35.5255 2.049 34.9741 2.049C34.141 2.049 33.487 2.45952 33.0121 3.28054C32.5372 4.10156 32.2977 5.28279 32.2937 6.82422C32.2937 7.85452 32.4003 8.72585 32.6136 9.43821C32.831 10.1465 33.1388 10.6838 33.5373 11.0501C33.9357 11.4123 34.4147 11.5934 34.9741 11.5934ZM41.6434 13V11.6477L45.827 7.31321C46.2737 6.84233 46.642 6.42981 46.9317 6.07564C47.2255 5.71745 47.4449 5.37737 47.5898 5.0554C47.7346 4.73343 47.8071 4.39133 47.8071 4.02912C47.8071 3.61861 47.7105 3.26444 47.5173 2.96662C47.3241 2.66477 47.0605 2.43336 46.7265 2.27237C46.3924 2.10736 46.0161 2.02486 45.5976 2.02486C45.1549 2.02486 44.7685 2.11541 44.4385 2.29652C44.1085 2.47763 43.8549 2.73319 43.6778 3.06321C43.5007 3.39323 43.4122 3.77959 43.4122 4.2223H41.6313C41.6313 3.4697 41.8044 2.81167 42.1505 2.24822C42.4966 1.68478 42.9715 1.24811 43.5752 0.93821C44.1789 0.624289 44.8651 0.467329 45.6338 0.467329C46.4105 0.467329 47.0947 0.622277 47.6863 0.932173C48.282 1.23804 48.7468 1.6566 49.0809 2.18785C49.4149 2.71508 49.5819 3.31072 49.5819 3.97479C49.5819 4.43359 49.4954 4.88234 49.3224 5.32102C49.1533 5.75971 48.8575 6.2487 48.4349 6.788C48.0123 7.32327 47.4247 7.97325 46.6721 8.73793L44.2151 11.3097V11.4002H49.7812V13H41.6434ZM52.0692 13V11.6477L56.2528 7.31321C56.6995 6.84233 57.0677 6.42981 57.3575 6.07564C57.6513 5.71745 57.8707 5.37737 58.0155 5.0554C58.1604 4.73343 58.2329 4.39133 58.2329 4.02912C58.2329 3.61861 58.1363 3.26444 57.9431 2.96662C57.7499 2.66477 57.4863 2.43336 57.1523 2.27237C56.8182 2.10736 56.4419 2.02486 56.0233 2.02486C55.5806 2.02486 55.1943 2.11541 54.8643 2.29652C54.5342 2.47763 54.2807 2.73319 54.1036 3.06321C53.9265 3.39323 53.838 3.77959 53.838 4.2223H52.0571C52.0571 3.4697 52.2301 2.81167 52.5763 2.24822C52.9224 1.68478 53.3973 1.24811 54.001 0.93821C54.6047 0.624289 55.2909 0.467329 56.0596 0.467329C56.8363 0.467329 57.5205 0.622277 58.1121 0.932173C58.7078 1.23804 59.1726 1.6566 59.5067 2.18785C59.8407 2.71508 60.0077 3.31072 60.0077 3.97479C60.0077 4.43359 59.9212 4.88234 59.7481 5.32102C59.5791 5.75971 59.2833 6.2487 58.8607 6.788C58.4381 7.32327 57.8505 7.97325 57.0979 8.73793L54.6409 11.3097V11.4002H60.2069V13H52.0692ZM67.163 13V0.636363H74.8299V2.24219H69.0284V6.00923H74.2805V7.60902H69.0284V13H67.163ZM76.979 13V3.72727H78.7841V13H76.979ZM77.8906 2.29652C77.5767 2.29652 77.3071 2.19188 77.0817 1.9826C76.8603 1.76929 76.7496 1.51574 76.7496 1.22195C76.7496 0.924124 76.8603 0.670573 77.0817 0.461292C77.3071 0.247987 77.5767 0.141335 77.8906 0.141335C78.2045 0.141335 78.4722 0.247987 78.6935 0.461292C78.9189 0.670573 79.0316 0.924124 79.0316 1.22195C79.0316 1.51574 78.9189 1.76929 78.6935 1.9826C78.4722 2.19188 78.2045 2.29652 77.8906 2.29652ZM83.0175 7.49432V13H81.2124V3.72727H82.945V5.23651H83.0597C83.2731 4.7455 83.6071 4.35109 84.0619 4.05327C84.5207 3.75544 85.0982 3.60653 85.7945 3.60653C86.4263 3.60653 86.9797 3.73935 87.4546 4.00497C87.9295 4.26657 88.2978 4.65696 88.5594 5.17614C88.821 5.69531 88.9518 6.33724 88.9518 7.10192V13H87.1468V7.31925C87.1468 6.64714 86.9717 6.12192 86.6215 5.74361C86.2714 5.36127 85.7905 5.1701 85.1787 5.1701C84.7602 5.1701 84.3879 5.26065 84.0619 5.44176C83.7399 5.62287 83.4843 5.88849 83.2952 6.23864C83.1101 6.58475 83.0175 7.00331 83.0175 7.49432ZM91.3726 13V3.72727H93.1776V13H91.3726ZM92.2842 2.29652C91.9703 2.29652 91.7006 2.19188 91.4752 1.9826C91.2539 1.76929 91.1432 1.51574 91.1432 1.22195C91.1432 0.924124 91.2539 0.670573 91.4752 0.461292C91.7006 0.247987 91.9703 0.141335 92.2842 0.141335C92.5981 0.141335 92.8657 0.247987 93.0871 0.461292C93.3125 0.670573 93.4252 0.924124 93.4252 1.22195C93.4252 1.51574 93.3125 1.76929 93.0871 1.9826C92.8657 2.19188 92.5981 2.29652 92.2842 2.29652ZM99.5119 13.1871C98.6426 13.1871 97.8839 12.9879 97.236 12.5895C96.588 12.1911 96.0849 11.6336 95.7267 10.9173C95.3685 10.2009 95.1895 9.36375 95.1895 8.40589C95.1895 7.44401 95.3685 6.60286 95.7267 5.88246C96.0849 5.16205 96.588 4.60263 97.236 4.20419C97.8839 3.80575 98.6426 3.60653 99.5119 3.60653C100.381 3.60653 101.14 3.80575 101.788 4.20419C102.436 4.60263 102.939 5.16205 103.297 5.88246C103.655 6.60286 103.834 7.44401 103.834 8.40589C103.834 9.36375 103.655 10.2009 103.297 10.9173C102.939 11.6336 102.436 12.1911 101.788 12.5895C101.14 12.9879 100.381 13.1871 99.5119 13.1871ZM99.5179 11.6719C100.081 11.6719 100.548 11.523 100.919 11.2251C101.289 10.9273 101.562 10.5309 101.74 10.0359C101.921 9.54084 102.011 8.9955 102.011 8.39986C102.011 7.80824 101.921 7.26491 101.74 6.76989C101.562 6.27083 101.289 5.87038 100.919 5.56854C100.548 5.26669 100.081 5.11577 99.5179 5.11577C98.9505 5.11577 98.4796 5.26669 98.1053 5.56854C97.735 5.87038 97.4593 6.27083 97.2782 6.76989C97.1011 7.26491 97.0126 7.80824 97.0126 8.39986C97.0126 8.9955 97.1011 9.54084 97.2782 10.0359C97.4593 10.5309 97.735 10.9273 98.1053 11.2251C98.4796 11.523 98.9505 11.6719 99.5179 11.6719ZM107.038 13.1147C106.708 13.1147 106.425 12.998 106.187 12.7646C105.95 12.5271 105.831 12.2414 105.831 11.9073C105.831 11.5773 105.95 11.2956 106.187 11.0621C106.425 10.8247 106.708 10.706 107.038 10.706C107.368 10.706 107.652 10.8247 107.89 11.0621C108.127 11.2956 108.246 11.5773 108.246 11.9073C108.246 12.1287 108.189 12.3319 108.077 12.517C107.968 12.6982 107.823 12.843 107.642 12.9517C107.461 13.0604 107.26 13.1147 107.038 13.1147ZM115.108 13V0.636363H119.636C120.513 0.636363 121.24 0.78125 121.815 1.07102C122.391 1.35677 122.821 1.74515 123.107 2.23615C123.393 2.72313 123.536 3.27249 123.536 3.88423C123.536 4.39938 123.441 4.83404 123.252 5.18821C123.063 5.53835 122.809 5.82008 122.491 6.03338C122.178 6.24266 121.831 6.3956 121.453 6.49219V6.61293C121.864 6.63305 122.264 6.76586 122.654 7.01136C123.049 7.25284 123.375 7.59695 123.632 8.04368C123.89 8.49041 124.019 9.03374 124.019 9.67365C124.019 10.3055 123.87 10.873 123.572 11.3761C123.278 11.8751 122.824 12.2715 122.208 12.5653C121.592 12.8551 120.805 13 119.847 13H115.108ZM116.974 11.4002H119.666C120.56 11.4002 121.2 11.2272 121.586 10.881C121.972 10.5349 122.165 10.1023 122.165 9.5831C122.165 9.19271 122.067 8.83452 121.87 8.50852C121.672 8.18253 121.391 7.92294 121.025 7.72976C120.662 7.53658 120.232 7.43999 119.733 7.43999H116.974V11.4002ZM116.974 5.98508H119.473C119.892 5.98508 120.268 5.90459 120.602 5.74361C120.94 5.58262 121.208 5.35724 121.405 5.06747C121.606 4.77367 121.707 4.42756 121.707 4.02912C121.707 3.51799 121.528 3.08937 121.169 2.74325C120.811 2.39714 120.262 2.22408 119.521 2.22408H116.974V5.98508ZM129.992 13.1871C129.095 13.1871 128.322 12.9839 127.674 12.5774C127.03 12.1669 126.535 11.6014 126.189 10.881C125.843 10.1606 125.67 9.33558 125.67 8.40589C125.67 7.46413 125.847 6.63305 126.201 5.91264C126.555 5.18821 127.054 4.62275 127.698 4.21626C128.342 3.80978 129.101 3.60653 129.974 3.60653C130.679 3.60653 131.306 3.73733 131.858 3.99893C132.409 4.25651 132.854 4.61873 133.192 5.08558C133.534 5.55244 133.737 6.09777 133.802 6.72159H132.045C131.948 6.28693 131.727 5.91264 131.381 5.59872C131.039 5.2848 130.58 5.12784 130.004 5.12784C129.501 5.12784 129.061 5.26065 128.682 5.52628C128.308 5.78788 128.016 6.16217 127.807 6.64915C127.598 7.1321 127.493 7.7036 127.493 8.36364C127.493 9.03977 127.596 9.62334 127.801 10.1143C128.006 10.6054 128.296 10.9857 128.67 11.2553C129.049 11.525 129.493 11.6598 130.004 11.6598C130.347 11.6598 130.656 11.5974 130.934 11.4727C131.216 11.3439 131.451 11.1607 131.64 10.9233C131.834 10.6858 131.968 10.4001 132.045 10.0661H133.802C133.737 10.6657 133.542 11.201 133.216 11.6719C132.89 12.1428 132.453 12.513 131.906 12.7827C131.363 13.0523 130.725 13.1871 129.992 13.1871ZM139.728 13.1871C138.815 13.1871 138.028 12.992 137.368 12.6016C136.712 12.2071 136.205 11.6538 135.847 10.9414C135.493 10.225 135.315 9.38589 135.315 8.42401C135.315 7.47419 135.493 6.63707 135.847 5.91264C136.205 5.18821 136.704 4.62275 137.344 4.21626C137.988 3.80978 138.74 3.60653 139.602 3.60653C140.125 3.60653 140.632 3.69306 141.123 3.86612C141.614 4.03918 142.055 4.31084 142.445 4.68111C142.835 5.05137 143.143 5.53232 143.369 6.12393C143.594 6.71153 143.707 7.4259 143.707 8.26705V8.90696H136.336V7.55469H141.938C141.938 7.07978 141.841 6.65921 141.648 6.29297C141.455 5.9227 141.183 5.63092 140.833 5.41761C140.487 5.20431 140.081 5.09766 139.614 5.09766C139.107 5.09766 138.664 5.22242 138.286 5.47195C137.911 5.71745 137.622 6.03942 137.416 6.43785C137.215 6.83227 137.114 7.26089 137.114 7.72372V8.78018C137.114 9.39998 137.223 9.9272 137.44 10.3619C137.662 10.7965 137.97 11.1286 138.364 11.358C138.758 11.5833 139.219 11.696 139.747 11.696C140.089 11.696 140.401 11.6477 140.682 11.5511C140.964 11.4505 141.207 11.3016 141.413 11.1044C141.618 10.9072 141.775 10.6637 141.884 10.3739L143.592 10.6818C143.455 11.1849 143.21 11.6256 142.856 12.0039C142.505 12.3782 142.065 12.67 141.533 12.8793C141.006 13.0845 140.405 13.1871 139.728 13.1871ZM150.209 13V3.72727H157.773V13H156.004V5.2848H151.965V13H150.209ZM160.186 16.4773V3.72727H161.949V5.23047H162.1C162.204 5.03729 162.355 4.81392 162.553 4.56037C162.75 4.30682 163.023 4.08546 163.374 3.89631C163.724 3.70312 164.187 3.60653 164.762 3.60653C165.511 3.60653 166.179 3.79569 166.766 4.17401C167.354 4.55232 167.815 5.09766 168.149 5.81001C168.487 6.52237 168.656 7.37962 168.656 8.38175C168.656 9.38388 168.489 10.2431 168.155 10.9595C167.821 11.6719 167.362 12.2212 166.778 12.6076C166.195 12.9899 165.529 13.1811 164.78 13.1811C164.217 13.1811 163.756 13.0865 163.398 12.8974C163.044 12.7082 162.766 12.4869 162.565 12.2333C162.363 11.9798 162.208 11.7544 162.1 11.5572H161.991V16.4773H160.186ZM161.955 8.36364C161.955 9.01562 162.049 9.58712 162.239 10.0781C162.428 10.5691 162.701 10.9535 163.06 11.2312C163.418 11.5049 163.857 11.6417 164.376 11.6417C164.915 11.6417 165.366 11.4988 165.728 11.2131C166.09 10.9233 166.364 10.5309 166.549 10.0359C166.738 9.54084 166.833 8.98343 166.833 8.36364C166.833 7.75189 166.74 7.20253 166.555 6.71555C166.374 6.22857 166.1 5.84422 165.734 5.5625C165.372 5.28078 164.919 5.13991 164.376 5.13991C163.853 5.13991 163.41 5.27474 163.048 5.54439C162.689 5.81404 162.418 6.19034 162.233 6.6733C162.047 7.15625 161.955 7.7197 161.955 8.36364ZM173.377 13.2053C172.789 13.2053 172.258 13.0966 171.783 12.8793C171.308 12.6579 170.932 12.3379 170.654 11.9194C170.38 11.5008 170.244 10.9877 170.244 10.38C170.244 9.85677 170.344 9.42614 170.545 9.08807C170.747 8.75 171.018 8.48236 171.36 8.28516C171.703 8.08795 172.085 7.93904 172.507 7.83842C172.93 7.73781 173.361 7.66134 173.799 7.60902C174.355 7.54463 174.806 7.49231 175.152 7.45206C175.498 7.40779 175.749 7.33736 175.906 7.24077C176.063 7.14418 176.142 6.98722 176.142 6.76989V6.72763C176.142 6.2004 175.993 5.7919 175.695 5.50213C175.401 5.21236 174.962 5.06747 174.379 5.06747C173.771 5.06747 173.292 5.2023 172.942 5.47195C172.596 5.73757 172.357 6.03338 172.224 6.35938L170.527 5.97301C170.729 5.40956 171.022 4.95478 171.409 4.60866C171.799 4.25852 172.248 4.00497 172.755 3.84801C173.262 3.68703 173.795 3.60653 174.355 3.60653C174.725 3.60653 175.117 3.65081 175.532 3.73935C175.951 3.82386 176.341 3.98082 176.703 4.21023C177.069 4.43963 177.369 4.76764 177.603 5.19425C177.836 5.61683 177.953 6.16619 177.953 6.84233V13H176.19V11.7322H176.118C176.001 11.9657 175.826 12.1951 175.592 12.4205C175.359 12.6458 175.059 12.833 174.693 12.9819C174.327 13.1308 173.888 13.2053 173.377 13.2053ZM173.769 11.7564C174.268 11.7564 174.695 11.6578 175.049 11.4606C175.407 11.2634 175.679 11.0058 175.864 10.6879C176.053 10.3659 176.148 10.0218 176.148 9.65554V8.46023C176.083 8.52462 175.959 8.58499 175.773 8.64133C175.592 8.69366 175.385 8.73994 175.152 8.78018C174.918 8.81641 174.691 8.85062 174.469 8.88281C174.248 8.91098 174.063 8.93513 173.914 8.95526C173.564 8.99953 173.244 9.07398 172.954 9.17862C172.668 9.28326 172.439 9.43419 172.266 9.63139C172.097 9.82457 172.012 10.0821 172.012 10.4041C172.012 10.8509 172.177 11.1889 172.507 11.4183C172.837 11.6437 173.258 11.7564 173.769 11.7564ZM180.357 13V3.72727H184.203C185.249 3.72727 186.078 3.95064 186.69 4.39737C187.301 4.84008 187.607 5.44176 187.607 6.20241C187.607 6.74574 187.434 7.17637 187.088 7.49432C186.742 7.81226 186.283 8.02557 185.712 8.13423C186.126 8.18253 186.507 8.30729 186.853 8.50852C187.199 8.70573 187.477 8.97135 187.686 9.3054C187.899 9.63944 188.006 10.0379 188.006 10.5007C188.006 10.9917 187.879 11.4264 187.625 11.8047C187.372 12.179 187.004 12.4728 186.521 12.6861C186.042 12.8954 185.464 13 184.788 13H180.357ZM182.053 11.4908H184.788C185.235 11.4908 185.585 11.3841 185.839 11.1708C186.092 10.9575 186.219 10.6677 186.219 10.3015C186.219 9.87086 186.092 9.53279 185.839 9.28729C185.585 9.03776 185.235 8.913 184.788 8.913H182.053V11.4908ZM182.053 7.59091H184.221C184.559 7.59091 184.848 7.54261 185.09 7.44602C185.335 7.34943 185.523 7.21259 185.651 7.03551C185.784 6.8544 185.851 6.6411 185.851 6.3956C185.851 6.03741 185.704 5.75769 185.41 5.55646C185.116 5.35523 184.714 5.25462 184.203 5.25462H182.053V7.59091ZM192.684 13.2053C192.097 13.2053 191.566 13.0966 191.091 12.8793C190.616 12.6579 190.239 12.3379 189.962 11.9194C189.688 11.5008 189.551 10.9877 189.551 10.38C189.551 9.85677 189.652 9.42614 189.853 9.08807C190.054 8.75 190.326 8.48236 190.668 8.28516C191.01 8.08795 191.392 7.93904 191.815 7.83842C192.238 7.73781 192.668 7.66134 193.107 7.60902C193.662 7.54463 194.113 7.49231 194.459 7.45206C194.805 7.40779 195.057 7.33736 195.214 7.24077C195.371 7.14418 195.449 6.98722 195.449 6.76989V6.72763C195.449 6.2004 195.3 5.7919 195.003 5.50213C194.709 5.21236 194.27 5.06747 193.687 5.06747C193.079 5.06747 192.6 5.2023 192.25 5.47195C191.904 5.73757 191.664 6.03338 191.531 6.35938L189.835 5.97301C190.036 5.40956 190.33 4.95478 190.716 4.60866C191.107 4.25852 191.555 4.00497 192.063 3.84801C192.57 3.68703 193.103 3.60653 193.662 3.60653C194.033 3.60653 194.425 3.65081 194.84 3.73935C195.258 3.82386 195.649 3.98082 196.011 4.21023C196.377 4.43963 196.677 4.76764 196.91 5.19425C197.144 5.61683 197.26 6.16619 197.26 6.84233V13H195.498V11.7322H195.425C195.308 11.9657 195.133 12.1951 194.9 12.4205C194.667 12.6458 194.367 12.833 194 12.9819C193.634 13.1308 193.196 13.2053 192.684 13.2053ZM193.077 11.7564C193.576 11.7564 194.002 11.6578 194.357 11.4606C194.715 11.2634 194.986 11.0058 195.172 10.6879C195.361 10.3659 195.455 10.0218 195.455 9.65554V8.46023C195.391 8.52462 195.266 8.58499 195.081 8.64133C194.9 8.69366 194.693 8.73994 194.459 8.78018C194.226 8.81641 193.998 8.85062 193.777 8.88281C193.556 8.91098 193.371 8.93513 193.222 8.95526C192.872 8.99953 192.552 9.07398 192.262 9.17862C191.976 9.28326 191.747 9.43419 191.574 9.63139C191.405 9.82457 191.32 10.0821 191.32 10.4041C191.32 10.8509 191.485 11.1889 191.815 11.4183C192.145 11.6437 192.566 11.7564 193.077 11.7564ZM203.614 10.549H205.462C205.486 10.9273 205.657 11.2191 205.975 11.4244C206.297 11.6296 206.713 11.7322 207.224 11.7322C207.744 11.7322 208.186 11.6216 208.552 11.4002C208.919 11.1748 209.102 10.8267 209.102 10.3558C209.102 10.0741 209.031 9.8286 208.891 9.61932C208.754 9.40601 208.559 9.241 208.305 9.12429C208.055 9.00758 207.76 8.94922 207.418 8.94922H205.908V7.53054H207.418C207.929 7.53054 208.311 7.41383 208.565 7.1804C208.818 6.94697 208.945 6.65518 208.945 6.30504C208.945 5.92673 208.808 5.62287 208.534 5.39347C208.265 5.16004 207.888 5.04332 207.405 5.04332C206.914 5.04332 206.506 5.154 206.18 5.37535C205.854 5.59268 205.683 5.87441 205.667 6.22053H203.844C203.856 5.70135 204.013 5.24657 204.315 4.85618C204.62 4.46177 205.031 4.15589 205.546 3.93857C206.065 3.71721 206.655 3.60653 207.315 3.60653C208.003 3.60653 208.599 3.71721 209.102 3.93857C209.605 4.15992 209.993 4.46579 210.267 4.85618C210.545 5.24657 210.684 5.69531 210.684 6.20241C210.684 6.71354 210.531 7.1321 210.225 7.4581C209.923 7.78007 209.528 8.01148 209.041 8.15234V8.24893C209.4 8.27308 209.718 8.38175 209.995 8.57493C210.273 8.76811 210.49 9.02367 210.647 9.34162C210.804 9.65956 210.883 10.0198 210.883 10.4222C210.883 10.9897 210.726 11.4807 210.412 11.8952C210.102 12.3098 209.671 12.6297 209.12 12.8551C208.573 13.0765 207.947 13.1871 207.242 13.1871C206.558 13.1871 205.945 13.0805 205.401 12.8672C204.862 12.6499 204.433 12.344 204.115 11.9496C203.801 11.5552 203.634 11.0883 203.614 10.549ZM215.445 13.2053C214.858 13.2053 214.326 13.0966 213.851 12.8793C213.376 12.6579 213 12.3379 212.722 11.9194C212.449 11.5008 212.312 10.9877 212.312 10.38C212.312 9.85677 212.413 9.42614 212.614 9.08807C212.815 8.75 213.087 8.48236 213.429 8.28516C213.771 8.08795 214.153 7.93904 214.576 7.83842C214.998 7.73781 215.429 7.66134 215.868 7.60902C216.423 7.54463 216.874 7.49231 217.22 7.45206C217.566 7.40779 217.818 7.33736 217.975 7.24077C218.132 7.14418 218.21 6.98722 218.21 6.76989V6.72763C218.21 6.2004 218.061 5.7919 217.763 5.50213C217.47 5.21236 217.031 5.06747 216.447 5.06747C215.84 5.06747 215.361 5.2023 215.01 5.47195C214.664 5.73757 214.425 6.03338 214.292 6.35938L212.596 5.97301C212.797 5.40956 213.091 4.95478 213.477 4.60866C213.867 4.25852 214.316 4.00497 214.823 3.84801C215.33 3.68703 215.864 3.60653 216.423 3.60653C216.793 3.60653 217.186 3.65081 217.6 3.73935C218.019 3.82386 218.409 3.98082 218.771 4.21023C219.138 4.43963 219.438 4.76764 219.671 5.19425C219.904 5.61683 220.021 6.16619 220.021 6.84233V13H218.258V11.7322H218.186C218.069 11.9657 217.894 12.1951 217.661 12.4205C217.427 12.6458 217.127 12.833 216.761 12.9819C216.395 13.1308 215.956 13.2053 215.445 13.2053ZM215.838 11.7564C216.337 11.7564 216.763 11.6578 217.117 11.4606C217.476 11.2634 217.747 11.0058 217.932 10.6879C218.122 10.3659 218.216 10.0218 218.216 9.65554V8.46023C218.152 8.52462 218.027 8.58499 217.842 8.64133C217.661 8.69366 217.453 8.73994 217.22 8.78018C216.987 8.81641 216.759 8.85062 216.538 8.88281C216.316 8.91098 216.131 8.93513 215.982 8.95526C215.632 8.99953 215.312 9.07398 215.023 9.17862C214.737 9.28326 214.507 9.43419 214.334 9.63139C214.165 9.82457 214.081 10.0821 214.081 10.4041C214.081 10.8509 214.246 11.1889 214.576 11.4183C214.906 11.6437 215.326 11.7564 215.838 11.7564ZM235.713 11.4425L235.544 15.6562H233.775V13H232.622V11.4425H235.713ZM222.425 3.72727H224.194V11.4364H227.4V3.72727H229.169V11.4364H232.374V3.72727H234.143V13H222.425V3.72727ZM239.385 10.4705L243.472 3.72727H245.415V13H243.647V6.25071L239.578 13H237.616V3.72727H239.385V10.4705ZM261.13 11.4425L260.961 15.6562H259.192V13H258.039V11.4425H261.13ZM247.842 3.72727H249.611V11.4364H252.817V3.72727H254.586V11.4364H257.791V3.72727H259.56V13H247.842V3.72727ZM266.93 13.1871C266.016 13.1871 265.229 12.992 264.569 12.6016C263.913 12.2071 263.406 11.6538 263.048 10.9414C262.694 10.225 262.517 9.38589 262.517 8.42401C262.517 7.47419 262.694 6.63707 263.048 5.91264C263.406 5.18821 263.905 4.62275 264.545 4.21626C265.189 3.80978 265.942 3.60653 266.803 3.60653C267.326 3.60653 267.833 3.69306 268.324 3.86612C268.815 4.03918 269.256 4.31084 269.646 4.68111C270.037 5.05137 270.344 5.53232 270.57 6.12393C270.795 6.71153 270.908 7.4259 270.908 8.26705V8.90696H263.537V7.55469H269.139C269.139 7.07978 269.043 6.65921 268.849 6.29297C268.656 5.9227 268.384 5.63092 268.034 5.41761C267.688 5.20431 267.282 5.09766 266.815 5.09766C266.308 5.09766 265.865 5.22242 265.487 5.47195C265.112 5.71745 264.823 6.03942 264.617 6.43785C264.416 6.83227 264.316 7.26089 264.316 7.72372V8.78018C264.316 9.39998 264.424 9.9272 264.642 10.3619C264.863 10.7965 265.171 11.1286 265.565 11.358C265.96 11.5833 266.42 11.696 266.948 11.696C267.29 11.696 267.602 11.6477 267.883 11.5511C268.165 11.4505 268.409 11.3016 268.614 11.1044C268.819 10.9072 268.976 10.6637 269.085 10.3739L270.793 10.6818C270.656 11.1849 270.411 11.6256 270.057 12.0039C269.707 12.3782 269.266 12.67 268.735 12.8793C268.207 13.0845 267.606 13.1871 266.93 13.1871ZM279.195 7.58487V9.14844H274.172V7.58487H279.195ZM274.68 3.72727V13H272.911V3.72727H274.68ZM280.457 3.72727V13H278.694V3.72727H280.457ZM284.23 6.91477H286.922C288.057 6.91477 288.931 7.1965 289.542 7.75994C290.154 8.32339 290.46 9.04983 290.46 9.93928C290.46 10.5188 290.323 11.04 290.05 11.5028C289.776 11.9657 289.375 12.3319 288.848 12.6016C288.321 12.8672 287.679 13 286.922 13H282.872V3.72727H284.64V11.4425H286.922C287.442 11.4425 287.868 11.3076 288.202 11.038C288.536 10.7643 288.703 10.4162 288.703 9.99361C288.703 9.54687 288.536 9.18265 288.202 8.90092C287.868 8.61517 287.442 8.4723 286.922 8.4723H284.23V6.91477ZM291.776 13V3.72727H293.581V13H291.776ZM297.193 13.1147C296.863 13.1147 296.579 12.998 296.342 12.7646C296.104 12.5271 295.985 12.2414 295.985 11.9073C295.985 11.5773 296.104 11.2956 296.342 11.0621C296.579 10.8247 296.863 10.706 297.193 10.706C297.523 10.706 297.806 10.8247 298.044 11.0621C298.281 11.2956 298.4 11.5773 298.4 11.9073C298.4 12.1287 298.344 12.3319 298.231 12.517C298.122 12.6982 297.978 12.843 297.796 12.9517C297.615 13.0604 297.414 13.1147 297.193 13.1147Z" fill="white" fill-opacity="0.7"/>
</svg>
